<svg xmlns="http://www.w3.org/2000/svg" viewBox="0 0 43 43"><defs><style>.cls-1{fill:#ffd900;}.cls-2{fill:#777;}</style></defs><g id="레이어_2" data-name="레이어 2"><g id="레이어_1-2" data-name="레이어 1"><circle class="cls-1" cx="21.5" cy="21.5" r="9.38"/><path class="cls-2" d="M21.5,12.25a9.25,9.25,0,1,1-9.25,9.25,9.26,9.26,0,0,1,9.25-9.25m0-.25A9.5,9.5,0,1,0,31,21.5,9.5,9.5,0,0,0,21.5,12Z"/><path class="cls-1" d="M21.5,5A16.5,16.5,0,1,1,5,21.5,16.52,16.52,0,0,1,21.5,5m0-5A21.5,21.5,0,1,0,43,21.5,21.51,21.51,0,0,0,21.5,0Z"/><path class="cls-2" d="M21.5.25A21.25,21.25,0,1,1,.25,21.5,21.27,21.27,0,0,1,21.5.25m0-.25A21.5,21.5,0,1,0,43,21.5,21.51,21.51,0,0,0,21.5,0Z"/></g></g></svg>