<svg xmlns="http://www.w3.org/2000/svg" viewBox="0 0 22 32.33"><defs><style>.cls-1{fill:#ffd900;}.cls-2{fill:#777;}</style></defs><g id="레이어_2" data-name="레이어 2"><g id="레이어_1-2" data-name="레이어 1"><path class="cls-1" d="M4.81,20A10.89,10.89,0,0,1,9.86.32a10.87,10.87,0,0,1,7.61,19.62L11.12,32.19ZM11.12,6a5.13,5.13,0,1,0,5.13,5.13A5.13,5.13,0,0,0,11.12,6Z" transform="translate(-0.13 -0.12)"/><path class="cls-2" d="M11.12.37A10.75,10.75,0,0,1,17.4,19.84l0,0,0,.05-6.2,12-6.19-12,0-.05-.05,0A10.74,10.74,0,0,1,9.88.45,10.32,10.32,0,0,1,11.12.37m0,16a5.25,5.25,0,1,0-5.25-5.25,5.26,5.26,0,0,0,5.25,5.25m0-16.26A11,11,0,0,0,4.7,20l6.42,12.42L17.55,20A11,11,0,0,0,11.12.12Zm0,16a5,5,0,1,1,5-5,5,5,0,0,1-5,5Z" transform="translate(-0.13 -0.12)"/></g></g></svg>